<?xml version="1.0" encoding="UTF-8" standalone="no"?>
<!DOCTYPE svg PUBLIC "-//W3C//DTD SVG 1.1//EN" "http://www.w3.org/Graphics/SVG/1.1/DTD/svg11.dtd">
<svg width="100%" height="100%" viewBox="0 0 449 121" version="1.1" xmlns="http://www.w3.org/2000/svg" xmlns:xlink="http://www.w3.org/1999/xlink" xml:space="preserve" xmlns:serif="http://www.serif.com/" style="fill-rule:evenodd;clip-rule:evenodd;stroke-linejoin:round;stroke-miterlimit:2;">
    <g id="Artboard1" transform="matrix(1,0,0,1,-80.0354,-201.149)">
        <rect x="80.035" y="201.149" width="448.075" height="120.474" style="fill:none;"/>
        <clipPath id="_clip1">
            <rect x="80.035" y="201.149" width="448.075" height="120.474"/>
        </clipPath>
        <g clip-path="url(#_clip1)">
            <g transform="matrix(6.03379,0,0,6.03379,-1305.94,-1238.87)">
                <g transform="matrix(12,0,0,12,256.408,253.182)">
                    <path d="M0.323,0.009C0.248,0.009 0.186,-0.008 0.135,-0.042C0.085,-0.076 0.054,-0.123 0.043,-0.184L0.163,-0.212C0.169,-0.173 0.187,-0.142 0.217,-0.12C0.247,-0.099 0.284,-0.088 0.328,-0.088C0.365,-0.088 0.396,-0.096 0.42,-0.113C0.444,-0.13 0.456,-0.155 0.456,-0.19C0.456,-0.204 0.452,-0.217 0.445,-0.229C0.438,-0.241 0.431,-0.25 0.422,-0.258C0.414,-0.265 0.401,-0.272 0.383,-0.28C0.365,-0.287 0.35,-0.293 0.339,-0.296C0.327,-0.3 0.31,-0.305 0.286,-0.312C0.283,-0.313 0.281,-0.314 0.279,-0.314C0.261,-0.319 0.246,-0.324 0.234,-0.328C0.222,-0.332 0.208,-0.337 0.191,-0.344C0.174,-0.35 0.161,-0.357 0.15,-0.363C0.14,-0.369 0.129,-0.378 0.117,-0.387C0.105,-0.397 0.096,-0.408 0.089,-0.419C0.082,-0.43 0.077,-0.443 0.072,-0.458C0.068,-0.473 0.065,-0.49 0.065,-0.508C0.065,-0.57 0.088,-0.619 0.133,-0.654C0.178,-0.689 0.235,-0.706 0.304,-0.706C0.336,-0.706 0.366,-0.703 0.394,-0.696C0.422,-0.689 0.448,-0.679 0.472,-0.665C0.496,-0.651 0.517,-0.633 0.534,-0.61C0.551,-0.587 0.562,-0.56 0.569,-0.53L0.456,-0.501C0.449,-0.537 0.432,-0.564 0.406,-0.582C0.38,-0.6 0.348,-0.608 0.31,-0.608C0.274,-0.608 0.244,-0.6 0.22,-0.584C0.196,-0.568 0.184,-0.543 0.184,-0.51C0.184,-0.501 0.185,-0.492 0.188,-0.485C0.192,-0.477 0.195,-0.47 0.2,-0.465C0.204,-0.459 0.211,-0.453 0.22,-0.448C0.229,-0.442 0.237,-0.437 0.243,-0.434C0.25,-0.43 0.26,-0.426 0.274,-0.422C0.288,-0.417 0.298,-0.414 0.306,-0.412C0.314,-0.41 0.326,-0.406 0.342,-0.402C0.357,-0.398 0.369,-0.394 0.379,-0.391C0.388,-0.389 0.4,-0.385 0.415,-0.38C0.43,-0.375 0.442,-0.37 0.451,-0.366C0.461,-0.361 0.472,-0.356 0.484,-0.349C0.497,-0.342 0.507,-0.335 0.515,-0.329C0.523,-0.322 0.531,-0.314 0.54,-0.304C0.548,-0.294 0.555,-0.284 0.56,-0.274C0.565,-0.263 0.569,-0.251 0.572,-0.238C0.575,-0.224 0.577,-0.21 0.577,-0.195C0.577,-0.16 0.57,-0.129 0.556,-0.103C0.542,-0.076 0.523,-0.055 0.5,-0.039C0.476,-0.023 0.449,-0.011 0.419,-0.003C0.389,0.005 0.357,0.009 0.323,0.009Z" style="fill:rgb(14,16,22);fill-rule:nonzero;"/>
                </g>
                <g transform="matrix(12,0,0,12,263.931,253.182)">
                    <path d="M0.25,-0C0.205,-0 0.171,-0.013 0.146,-0.038C0.121,-0.063 0.109,-0.098 0.109,-0.144L0.109,-0.403L0.011,-0.403L0.011,-0.491L0.044,-0.491C0.071,-0.491 0.09,-0.497 0.102,-0.51C0.114,-0.523 0.12,-0.544 0.12,-0.576L0.12,-0.652L0.223,-0.652L0.223,-0.491L0.33,-0.491L0.33,-0.403L0.223,-0.403L0.223,-0.155C0.223,-0.133 0.228,-0.116 0.24,-0.104C0.251,-0.093 0.266,-0.087 0.285,-0.087L0.33,-0.087L0.33,-0L0.25,-0Z" style="fill:rgb(14,16,22);fill-rule:nonzero;"/>
                </g>
                <g transform="matrix(12,0,0,12,268.273,253.182)">
                    <path d="M0.195,0.009C0.167,0.009 0.142,0.005 0.12,-0.004C0.098,-0.012 0.08,-0.027 0.066,-0.048C0.051,-0.068 0.044,-0.094 0.044,-0.125C0.044,-0.145 0.047,-0.163 0.054,-0.179C0.061,-0.196 0.069,-0.209 0.08,-0.22C0.091,-0.23 0.105,-0.24 0.122,-0.248C0.139,-0.256 0.156,-0.263 0.173,-0.267C0.19,-0.272 0.209,-0.277 0.232,-0.281L0.306,-0.294C0.336,-0.3 0.352,-0.315 0.352,-0.339C0.352,-0.367 0.342,-0.387 0.324,-0.4C0.306,-0.413 0.283,-0.419 0.255,-0.419C0.227,-0.419 0.203,-0.413 0.185,-0.399C0.166,-0.385 0.155,-0.363 0.151,-0.333L0.05,-0.352C0.067,-0.451 0.138,-0.5 0.262,-0.5C0.283,-0.5 0.302,-0.498 0.321,-0.495C0.339,-0.492 0.356,-0.487 0.374,-0.479C0.391,-0.47 0.406,-0.46 0.418,-0.448C0.431,-0.435 0.441,-0.418 0.448,-0.398C0.456,-0.377 0.459,-0.353 0.459,-0.327L0.459,-0.136C0.459,-0.113 0.463,-0.098 0.47,-0.089C0.477,-0.081 0.489,-0.077 0.506,-0.077L0.514,-0.077L0.514,-0L0.46,-0C0.405,-0 0.372,-0.022 0.361,-0.065L0.355,-0.065C0.338,-0.04 0.314,-0.021 0.286,-0.009C0.257,0.003 0.227,0.009 0.195,0.009ZM0.222,-0.079C0.261,-0.079 0.294,-0.093 0.32,-0.12C0.346,-0.147 0.359,-0.182 0.359,-0.226L0.233,-0.198C0.206,-0.193 0.186,-0.185 0.173,-0.176C0.16,-0.166 0.153,-0.152 0.153,-0.134C0.153,-0.116 0.159,-0.102 0.172,-0.093C0.185,-0.084 0.201,-0.079 0.222,-0.079Z" style="fill:rgb(14,16,22);fill-rule:nonzero;"/>
                </g>
                <g transform="matrix(12,0,0,12,274.789,253.182)">
                    <path d="M0.188,-0.409C0.2,-0.434 0.221,-0.455 0.25,-0.471C0.279,-0.488 0.311,-0.496 0.346,-0.497L0.346,-0.394C0.294,-0.394 0.255,-0.383 0.23,-0.361C0.205,-0.339 0.192,-0.302 0.192,-0.25L0.192,-0L0.08,-0L0.08,-0.491L0.188,-0.491L0.188,-0.409Z" style="fill:rgb(14,16,22);fill-rule:nonzero;"/>
                </g>
                <g transform="matrix(12,0,0,12,279.078,253.182)">
                    <rect x="0.08" y="-0.75" width="0.113" height="0.75" style="fill:rgb(14,16,22);fill-rule:nonzero;"/>
                </g>
                <g transform="matrix(12,0,0,12,282.347,253.182)">
                    <path d="M0.137,-0.585C0.118,-0.585 0.102,-0.592 0.088,-0.605C0.075,-0.619 0.068,-0.635 0.068,-0.654C0.068,-0.673 0.075,-0.689 0.088,-0.702C0.102,-0.716 0.118,-0.723 0.137,-0.723C0.156,-0.723 0.172,-0.716 0.186,-0.702C0.199,-0.689 0.206,-0.673 0.206,-0.654C0.206,-0.635 0.199,-0.619 0.186,-0.605C0.172,-0.592 0.156,-0.585 0.137,-0.585ZM0.08,-0L0.08,-0.491L0.192,-0.491L0.192,-0L0.08,-0Z" style="fill:rgb(14,16,22);fill-rule:nonzero;"/>
                </g>
                <g transform="matrix(12,0,0,12,285.611,253.182)">
                    <path d="M0.426,-0.491L0.534,-0.491L0.534,-0.031C0.534,0.056 0.512,0.122 0.468,0.166C0.424,0.21 0.363,0.232 0.284,0.232C0.16,0.232 0.078,0.182 0.038,0.081L0.131,0.039C0.146,0.074 0.165,0.1 0.189,0.117C0.213,0.134 0.243,0.143 0.28,0.143C0.326,0.143 0.361,0.128 0.385,0.099C0.409,0.071 0.421,0.03 0.421,-0.023L0.421,-0.096C0.406,-0.072 0.384,-0.053 0.355,-0.038C0.326,-0.023 0.295,-0.016 0.261,-0.016C0.198,-0.016 0.145,-0.038 0.102,-0.084C0.058,-0.13 0.037,-0.188 0.037,-0.259C0.037,-0.294 0.043,-0.327 0.055,-0.358C0.067,-0.388 0.083,-0.414 0.103,-0.434C0.124,-0.455 0.147,-0.471 0.175,-0.483C0.202,-0.495 0.231,-0.5 0.262,-0.5C0.297,-0.5 0.329,-0.493 0.358,-0.477C0.387,-0.461 0.409,-0.44 0.423,-0.414L0.426,-0.491ZM0.288,-0.108C0.328,-0.108 0.362,-0.123 0.39,-0.152C0.417,-0.182 0.431,-0.217 0.431,-0.259C0.431,-0.3 0.417,-0.336 0.39,-0.365C0.362,-0.395 0.328,-0.41 0.288,-0.41C0.248,-0.41 0.214,-0.395 0.187,-0.367C0.159,-0.338 0.146,-0.302 0.146,-0.259C0.146,-0.216 0.159,-0.18 0.187,-0.152C0.215,-0.123 0.248,-0.108 0.288,-0.108Z" style="fill:rgb(14,16,22);fill-rule:nonzero;"/>
                </g>
                <g transform="matrix(12,0,0,12,292.971,253.182)">
                    <path d="M0.346,-0.5C0.4,-0.5 0.441,-0.485 0.472,-0.454C0.502,-0.424 0.518,-0.379 0.518,-0.32L0.518,-0L0.404,-0L0.404,-0.301C0.404,-0.338 0.395,-0.366 0.377,-0.383C0.359,-0.4 0.336,-0.409 0.307,-0.409C0.274,-0.409 0.247,-0.399 0.225,-0.378C0.203,-0.358 0.192,-0.326 0.192,-0.282L0.192,-0L0.08,-0L0.08,-0.75L0.192,-0.75L0.192,-0.43C0.209,-0.452 0.23,-0.47 0.257,-0.482C0.283,-0.494 0.313,-0.5 0.346,-0.5Z" style="fill:rgb(14,16,22);fill-rule:nonzero;"/>
                </g>
                <g transform="matrix(12,0,0,12,300.013,253.182)">
                    <path d="M0.25,-0C0.205,-0 0.171,-0.013 0.146,-0.038C0.121,-0.063 0.109,-0.098 0.109,-0.144L0.109,-0.403L0.011,-0.403L0.011,-0.491L0.044,-0.491C0.071,-0.491 0.09,-0.497 0.102,-0.51C0.114,-0.523 0.12,-0.544 0.12,-0.576L0.12,-0.652L0.223,-0.652L0.223,-0.491L0.33,-0.491L0.33,-0.403L0.223,-0.403L0.223,-0.155C0.223,-0.133 0.228,-0.116 0.24,-0.104C0.251,-0.093 0.266,-0.087 0.285,-0.087L0.33,-0.087L0.33,-0L0.25,-0Z" style="fill:rgb(14,16,22);fill-rule:nonzero;"/>
                </g>
            </g>
            <g transform="matrix(0.247402,0,0,0.247402,80.0707,198.2)">
                <g>
                    <g>
                        <path d="M323.574,346.086C266.714,249.052 184.628,195.993 125.779,168.572C120.495,166.109 117.117,160.809 117.117,154.98L117.117,27.518C117.117,22.599 119.529,17.994 123.571,15.192C127.614,12.39 132.773,11.75 137.378,13.477C264.495,61.145 328.484,146.798 385.455,260.739C387.565,264.961 387.565,269.93 385.455,274.152L349.925,345.211C344.607,355.847 329.595,356.359 323.574,346.086Z" style="fill:rgb(230,41,114);fill-rule:nonzero;"/>
                    </g>
                </g>
                <g>
                    <g>
                        <path d="M250.619,363.424C134.749,298.53 35.922,309.42 17.29,312.262C3.783,314.321 -5.221,298.635 3.368,288.01C25.767,260.303 46.329,245.194 67.356,222.281C46.019,191.943 23.795,153.064 3.212,126.723C-5.115,116.064 3.888,100.62 17.292,102.666C138.016,121.104 273.969,202.115 349.45,330.922C354.805,340.061 349.233,351.752 338.745,353.332L260.178,365.169C256.944,365.656 253.574,365.08 250.619,363.424Z" style="fill:rgb(234,76,137);fill-rule:nonzero;"/>
                    </g>
                </g>
                <path d="M222.087,402.406L207.091,402.406L207.091,387.41C207.091,379.129 200.377,372.415 192.096,372.415C183.814,372.415 177.1,379.129 177.1,387.41L177.1,402.406L162.105,402.406C153.823,402.406 147.109,409.12 147.109,417.401C147.109,425.683 153.823,432.397 162.105,432.397L177.1,432.397L177.1,447.392C177.1,455.674 183.814,462.388 192.096,462.388C200.377,462.388 207.091,455.674 207.091,447.392L207.091,432.397L222.087,432.397C230.368,432.397 237.082,425.683 237.082,417.401C237.082,409.12 230.368,402.406 222.087,402.406Z" style="fill:rgb(240,131,173);fill-rule:nonzero;"/>
                <g>
                    <g>
                        <path d="M488.367,335.515L417.498,324.838L385.458,260.737C382.699,255.219 377.37,252.46 372.042,252.46C366.713,252.46 361.385,255.219 358.626,260.737L326.585,324.838L255.717,335.515C243.51,337.354 238.642,352.37 247.429,361.027L298.484,411.302L286.737,482.001C284.718,494.177 297.504,503.445 308.441,497.766L372.042,464.756L435.643,497.766C446.53,503.425 459.376,494.237 457.346,482.001L445.6,411.302L496.655,361.027C505.452,352.361 500.563,337.344 488.367,335.515Z" style="fill:rgb(240,131,173);fill-rule:nonzero;"/>
                    </g>
                </g>
                <g>
                    <path d="M496.655,361.027L445.6,411.302L457.346,482.001C459.376,494.237 446.53,503.425 435.643,497.766L372.042,464.756L372.042,252.46C377.37,252.46 382.699,255.219 385.458,260.737L417.498,324.838L488.367,335.515C500.563,337.344 505.452,352.361 496.655,361.027Z" style="fill:rgb(234,76,137);fill-rule:nonzero;"/>
                    <path d="M497.004,222.46L482.009,222.46L482.009,207.464C482.009,199.182 475.295,192.468 467.013,192.468C458.732,192.468 452.018,199.182 452.018,207.464L452.018,222.46L437.022,222.46C428.741,222.46 422.027,229.174 422.027,237.455C422.027,245.737 428.741,252.451 437.022,252.451L452.018,252.451L452.018,267.446C452.018,275.728 458.732,282.442 467.013,282.442C475.295,282.442 482.009,275.728 482.009,267.446L482.009,252.451L497.004,252.451C505.286,252.451 512,245.737 512,237.455C512,229.174 505.286,222.46 497.004,222.46Z" style="fill:rgb(234,76,137);fill-rule:nonzero;"/>
                </g>
            </g>
        </g>
    </g>
</svg>
